<svg xmlns="http://www.w3.org/2000/svg" viewBox="0 0 1200 675" role="img" aria-labelledby="title desc">
  <title id="title">Pillar Two global minimum tax visual</title>
  <desc id="desc">A clean infographic showing a 15 percent minimum tax floor and the QDMTT, IIR, and UTPR rule sequence.</desc>
  <defs>
    <linearGradient id="bg" x1="0" y1="0" x2="1" y2="1">
      <stop offset="0" stop-color="#071014"/>
      <stop offset="0.58" stop-color="#0c151b"/>
      <stop offset="1" stop-color="#111827"/>
    </linearGradient>
    <linearGradient id="floor" x1="0" y1="0" x2="1" y2="0">
      <stop offset="0" stop-color="#2dd4bf"/>
      <stop offset="1" stop-color="#a3e635"/>
    </linearGradient>
    <linearGradient id="gap" x1="0" y1="0" x2="1" y2="0">
      <stop offset="0" stop-color="#f59e0b"/>
      <stop offset="1" stop-color="#facc15"/>
    </linearGradient>
    <style>
      .title { font-family: Inter, Arial, sans-serif; fill: #f8fafc; font-weight: 800; letter-spacing: 0; }
      .label { font-family: Inter, Arial, sans-serif; fill: #e2e8f0; font-weight: 700; letter-spacing: 0; }
      .muted { font-family: Inter, Arial, sans-serif; fill: #a8b3bf; font-weight: 500; letter-spacing: 0; }
      .card { fill: rgba(15, 23, 42, 0.72); stroke: rgba(226, 232, 240, 0.16); stroke-width: 1.5; }
      .grid { stroke: rgba(226, 232, 240, 0.08); stroke-width: 1; }
      .arrow { stroke: #a8b3bf; stroke-width: 2.5; stroke-linecap: round; stroke-linejoin: round; fill: none; }
    </style>
  </defs>

  <rect width="1200" height="675" fill="url(#bg)"/>
  <path d="M96 230H1104M96 326H1104M96 422H1104" class="grid"/>
  <path d="M260 190V438M460 190V438M660 190V438M860 190V438" class="grid"/>

  <text x="80" y="92" class="muted" font-size="18">PILLAR TWO FUNDAMENTALS</text>
  <text x="80" y="154" class="title" font-size="50">Global minimum tax</text>
  <text x="80" y="204" class="muted" font-size="24">15% floor. Jurisdictional test. Ordered collection rules.</text>

  <g transform="translate(88 260)">
    <rect x="0" y="0" width="1024" height="158" rx="8" fill="rgba(2, 6, 23, 0.58)" stroke="rgba(226, 232, 240, 0.14)"/>
    <text x="48" y="66" class="label" font-size="36">ETR below floor</text>
    <text x="48" y="112" class="muted" font-size="22">Top-up tax applies</text>

    <line x1="438" y1="92" x2="944" y2="92" stroke="rgba(226, 232, 240, 0.22)" stroke-width="20" stroke-linecap="round"/>
    <line x1="438" y1="92" x2="638" y2="92" stroke="url(#gap)" stroke-width="20" stroke-linecap="round"/>
    <line x1="638" y1="92" x2="944" y2="92" stroke="url(#floor)" stroke-width="20" stroke-linecap="round"/>
    <text x="438" y="62" class="muted" font-size="18">Top-up</text>
    <text x="624" y="62" class="label" font-size="26">15%</text>
    <text x="780" y="62" class="muted" font-size="18">Minimum floor</text>
  </g>

  <g transform="translate(88 500)">
    <rect class="card" x="0" y="0" width="286" height="104" rx="8"/>
    <text x="28" y="45" class="label" font-size="34">QDMTT</text>
    <text x="28" y="78" class="muted" font-size="20">Local first</text>
  </g>

  <g transform="translate(458 500)">
    <rect class="card" x="0" y="0" width="286" height="104" rx="8"/>
    <text x="28" y="45" class="label" font-size="34">IIR</text>
    <text x="28" y="78" class="muted" font-size="20">Parent rule</text>
  </g>

  <g transform="translate(828 500)">
    <rect class="card" x="0" y="0" width="286" height="104" rx="8"/>
    <text x="28" y="45" class="label" font-size="34">UTPR</text>
    <text x="28" y="78" class="muted" font-size="20">Backstop</text>
  </g>

  <path d="M374 552H458" class="arrow"/>
  <path d="M744 552H828" class="arrow"/>
  <path d="M438 542l20 10-20 10" class="arrow"/>
  <path d="M808 542l20 10-20 10" class="arrow"/>
</svg>